# AST/ASF file generated using VICON BodyLanguage
# -----------------------------------------------
:version 1.10
:name VICON
:units
  mass 1.0
  length 0.45
  angle deg
:documentation
   .ast/.asf automatically generated from VICON data using
   VICON BodyBuilder and BodyLanguage model FoxedUp or BRILLIANT.MOD
:root
   order TX TY TZ RX RY RZ
   axis XYZ
   position 0 0 0  
   orientation 0 0 0 
:bonedata
  begin
     id 1 
     name lhipjoint
     direction 0.692814 -0.645514 0.321437 
     length 2.38754 
     axis 0 0 0  XYZ
  end
  begin
     id 2 
     name lfemur
     direction 0.34202 -0.939693 0  
     length 6.41921  
     axis 0 0 20  XYZ
    dof rx ry rz
    limits (-160.0 20.0)
           (-70.0 70.0)
           (-60.0 70.0)
  end
  begin
     id 3 
     name ltibia
     direction 0.34202 -0.939693 0   
     length 6.98247   
     axis 0 0 20   XYZ
    dof rx
    limits (-10.0 170.0)
  end
  begin
     id 4 
     name lfoot
     direction 0.0947186 -0.260237 0.960888   
     length 1.83034   
     axis -90 7.62852e-016 20   XYZ
    dof rx rz
    limits (-45.0 90.0)
           (-70.0 20.0)
  end
  begin
     id 5 
     name ltoes
     direction 1.53538e-011 -4.21952e-011 1   
     length 0.920499   
     axis -90 7.62852e-016 20   XYZ
    dof rx
    limits (-90.0 20.0)
  end
  begin
     id 6 
     name rhipjoint
     direction -0.631686 -0.693949 0.345555   
     length 2.2209  
     axis 0 0 0  XYZ 
  end
  begin
     id 7 
     name rfemur
     direction -0.34202 -0.939693 0   
     length 6.49542   
     axis 0 0 -20   XYZ
    dof rx ry rz
    limits (-160.0 20.0)
           (-70.0 70.0)
           (-70.0 60.0)
  end
  begin
     id 8 
     name rtibia
     direction -0.34202 -0.939693 0   
     length 7.21712   
     axis 0 0 -20   XYZ
    dof rx
    limits (-10.0 170.0)
 end
 begin
     id 9 
     name rfoot
     direction -0.0825378 -0.226771 0.970444   
     length 1.89724  
     axis -90 -7.62852e-016 -20   XYZ
    dof rx rz
    limits (-45.0 90.0)
           (-20.0 70.0)
  end
  begin
     id 10 
     name rtoes
     direction -1.53515e-011 -4.22016e-011 1   
     length 0.955868   
     axis -90 -7.62852e-016 -20   XYZ
    dof rx
    limits (-90.0 20.0)
  end
  begin
     id 11 
     name lowerback
     direction -0.0104711 0.984802 -0.173368   
     length 1.84931   
     axis 0 0 0   XYZ
    dof rx ry rz
    limits (-20.0 45.0)
           (-30.0 30.0)
           (-30.0 30.0)
  end
  begin
     id 12 
     name upperback
     direction -0.00286433 0.999996 -0.000382853   
     length 1.85768   
     axis 0 0 0   XYZ
    dof rx ry rz
    limits (-20.0 45.0)
           (-30.0 30.0)
           (-30.0 30.0)
  end
  begin
     id 13 
     name thorax
     direction 0.00167534 0.996793 0.0800069   
     length 1.92   
     axis 0 0 0   XYZ
    dof rx ry rz
    limits (-20.0 45.0)
           (-30.0 30.0)
           (-30.0 30.0)
  end
  begin
     id 14 
     name lowerneck
     direction -0.0672491 0.995415 0.068018   
     length 1.58923   
     axis 0 0 0   XYZ
    dof rx ry rz
    limits (-20.0 45.0)
           (-30.0 30.0)
           (-30.0 30.0)
  end
  begin
     id 15 
     name upperneck
     direction 0.0958019 0.982476 -0.159884   
     length 1.60189   
     axis 0 0 0   XYZ
    dof rx ry rz
    limits (-20.0 45.0)
           (-30.0 30.0)
           (-30.0 30.0)
  end
  begin
     id 16
     name head
     direction 0.032989 0.997338 -0.0650226  
     length 1.61681  
     axis 0 0 0   XYZ
    dof rx ry rz
    limits (-20.0 45.0)
           (-30.0 30.0)
           (-30.0 30.0)
  end
  begin
     id 17 
     name lclavicle
     direction 0.954279 0.298875 -0.00496069  
     length 2.99449  
     axis 0 0 0   XYZ
    dof ry rz
    limits (-20.0 10.0)
           (0.0 20.0)
  end
  begin
     id 18 
     name lhumerus
     direction 1 -4.48985e-011 -4.2057e-027   
     length 4.79185   
     axis 180 -30 -90   XYZ
    dof rx ry rz
    limits (-60.0 90.0)
           (-90.0 90.0)
           (-90.0 90.0)
  end
  begin
     id 19
     name lradius
     direction 1 -4.48945e-011 1.15441e-028   
     length 2.65553   
     axis 180 -30 -90   XYZ
    dof rx
    limits (-10.0 170.0)
  end
  begin
     id 20
     name lwrist
     direction 1 -4.4899e-011 4.8894e-028   
     length 1.32777   
     axis -2.56392e-016 90 90   XYZ
    dof ry
    limits (-180.0 0.0)
 end
  begin
     id 21 
     name lhand
     direction 1 -4.48908e-011 9.7788e-028   
     length 0.743904   
     axis -6.23971e-016 90 90   XYZ
    dof rx rz
    limits (-90.0 90.0)
           (-45.0 45.0)
  end
  begin
     id 22 
     name lfingers
     direction 1 -4.49068e-011 1.95576e-027   
     length 0.599754   
     axis -1.24794e-015 90 90   XYZ
    dof rx
    limits (0.0 90.0)
  end
  begin
     id 23
     name lthumb
     direction 0.707107 -6.34883e-011 0.707107   
     length 0.861131   
     axis -90 45 2.85299e-015   XYZ
    dof rx rz
    limits (-45.0 45.0)
           (-45.0 45.0)
  end
  begin
     id 24 
     name rclavicle
     direction -0.957921 0.286916 0.00811568   
     length 3.06817  
     axis 0 0 0   XYZ 
    dof ry rz
    limits (-10.0 20.0)
           (-20.0 0.0)
  end
  begin
     id 25 
     name rhumerus
     direction -1 -4.48971e-011 -3.07942e-027  
     length 4.77254   
     axis 180 30 90   XYZ
    dof rx ry rz
    limits (-90.0 60.0)
           (-90.0 90.0)
           (-90.0 90.0)
  end
  begin
     id 26 
     name rradius
     direction -1 -4.48957e-011 -9.6815e-028   
     length 2.75995   
     axis 180 30 90   XYZ
    dof rx
    limits (-10.0 170.0)
  end
  begin
     id 27 
     name rwrist
     direction -1 -4.48979e-011 4.8894e-028   
     length 1.37997   
     axis -2.56392e-016 -90 -90   XYZ
    dof ry
    limits (-180.0 0.0)
  end
  begin
     id 28
     name rhand
     direction -1 -4.48906e-011 9.7788e-028   
     length 0.701619   
     axis -6.23971e-016 -90 -90   XYZ
    dof rx rz
    limits (-90.0 90.0)
           (-45.0 45.0)
  end
  begin
     id 29
     name rfingers
     direction -1 -4.49018e-011 1.95576e-027   
     length 0.565663   
     axis -1.24794e-015 -90 -90   XYZ
    dof rx
    limits (0.0 90.0)
  end
  begin
     id 30
     name rthumb
     direction -0.707107 -6.34881e-011 0.707107   
     length 0.812183   
     axis -90 -45 -2.85299e-015   XYZ
    dof rx rz
    limits (-45.0 45.0)
           (-45.0 45.0)
  end
:hierarchy
  begin
    root lhipjoint rhipjoint lowerback
    lhipjoint lfemur
    lfemur ltibia
    ltibia lfoot
    lfoot ltoes
    rhipjoint rfemur
    rfemur rtibia
    rtibia rfoot
    rfoot rtoes
    lowerback upperback
    upperback thorax
    thorax lowerneck lclavicle rclavicle
    lowerneck upperneck
    upperneck head
    lclavicle lhumerus
    lhumerus lradius
    lradius lwrist
    lwrist lhand lthumb
    lhand lfingers
    rclavicle rhumerus
    rhumerus rradius
    rradius rwrist
    rwrist rhand rthumb
    rhand rfingers
  end

#!OML:ASF F:\VICON\USERDATA\INSTALL\rory3\rory3.ASF
:FULLY-SPECIFIED
:DEGREES
289
root 0.213535 16.2198 -0.300917 0.884305 1.66236 -0.465775
lowerback 10.2592 0.0498384 0.324687
upperback -5.48306 0.114135 -0.0339695
thorax -11.7238 0.027526 -0.242956
lowerneck -12.9137 -6.25585 -10.7691
upperneck 30.381 -8.16654 5.81113
head 13.012 -4.14738 2.84737
rclavicle -2.77056e-015 2.83268e-015
rhumerus 37.6608 40.1485 -16.3877
rradius 55.3702
rwrist -60.7638
rhand -5.21947 11.7301
rfingers 7.12502
rthumb 20.5825 -17.1987
lclavicle -2.77056e-015 2.83268e-015
lhumerus 35.2919 -43.7825 24.2911
lradius 52.3314
lwrist 61.0474
lhand 4.19761 19.6987
lfingers 7.12502
lthumb 29.6043 47.3568
rfemur -1.17849 11.2854 17.432
rtibia 12.1114
rfoot -8.72724 -14.6143
rtoes -3.00774
lfemur 3.90547 -10.8719 -16.2753
ltibia -4.77083e-015
lfoot -2.86311 9.16785
ltoes -5.86277
290
root 0.211202 16.2206 -0.30926 0.892779 1.64303 -0.417681
lowerback 10.2842 0.0428475 0.249726
upperback -5.43195 0.0906382 -0.0572912
thorax -11.6811 0.0211819 -0.221281
lowerneck -12.9807 -6.25423 -10.7594
upperneck 30.2587 -8.15901 5.83407
head 12.9747 -4.13766 2.85264
rclavicle -2.04375e-015 -1.07344e-014
rhumerus 38.2726 40.3424 -16.2903
rradius 55.5601
rwrist -60.8001
rhand -5.30343 11.9271
rfingers 7.12502
rthumb 20.5018 -17.0104
lclavicle -2.04375e-015 -1.07344e-014
lhumerus 35.7948 -43.8941 24.264
lradius 52.6957
lwrist 61.3369
lhand 4.93873 19.6166
lfingers 7.12502
lthumb 30.3115 47.147
rfemur -1.24972 11.3159 17.3716
rtibia 12.1732
rfoot -8.81466 -14.5837
rtoes -2.54506
lfemur 3.85394 -10.8531 -16.3071
ltibia -1.19271e-014
lfoot -2.83635 9.16928
ltoes -5.82668
291
root 0.210302 16.2214 -0.31881 0.94603 1.67453 -0.37174
lowerback 10.2589 -0.00204066 0.175028
upperback -5.38993 0.0160596 -0.0802149
thorax -11.6186 -0.00953823 -0.188959
lowerneck -13.0416 -6.22023 -10.6775
upperneck 30.1244 -8.12526 5.86192
head 12.9242 -4.10775 2.8521
rclavicle -4.87022e-015 -5.96354e-015
rhumerus 38.912 40.5591 -16.1811
rradius 55.8611
rwrist -61.2036
rhand -5.41124 12.3092
rfingers 7.12502
rthumb 20.3982 -16.6395
lclavicle -4.87022e-015 -5.96354e-015
lhumerus 36.2075 -43.9298 24.3527
lradius 52.9566
lwrist 61.5205
lhand 5.2321 18.723
lfingers 7.12502
lthumb 30.5913 46.2016
rfemur -1.34528 11.305 17.3044
rtibia 12.1996
rfoot -8.83391 -14.6026
rtoes -2.2423
lfemur 3.74804 -10.8823 -16.3325
ltibia 6.36111e-015
lfoot -2.78208 9.15952
ltoes -5.63457
292
root 0.210317 16.2224 -0.328429 0.964042 1.67939 -0.370707
lowerback 10.2789 -0.024414 0.172517
upperback -5.34954 -0.0160443 -0.0945315
thorax -11.5851 -0.0252784 -0.1966
lowerneck -13.0319 -6.21019 -10.6096
upperneck 29.9365 -8.11734 5.85851
head 12.839 -4.09592 2.8384
rclavicle 5.74612e-015 1.60022e-014
rhumerus 39.4596 40.7666 -16.0836
rradius 56.1852
rwrist -61.5837
rhand -5.52934 12.6077
rfingers 7.12502
rthumb 20.2847 -16.353
lclavicle 5.74612e-015 1.60022e-014
lhumerus 36.7263 -43.9698 24.4742
lradius 53.0598
lwrist 61.5626
lhand 5.10424 18.1611
lfingers 7.12502
lthumb 30.4694 45.6624
rfemur -1.39575 11.2692 17.2895
rtibia 12.188
rfoot -8.79883 -14.5951
rtoes -2.26304
lfemur 3.69376 -10.8862 -16.3238
ltibia 1.66979e-014
lfoot -2.76643 9.14659
ltoes -5.56823
293
root 0.209158 16.2232 -0.338488 0.954883 1.6706 -0.454295
lowerback 10.4386 -0.0205853 0.230829
upperback -5.3681 0.00268636 -0.0547896
thorax -11.7029 -0.0191284 -0.190199
lowerneck -12.9696 -6.21515 -10.6352
upperneck 29.7839 -8.11175 5.84754
head 12.7631 -4.0979 2.83884
rclavicle 1.73315e-015 -9.93923e-017
rhumerus 39.8467 41.0104 -16.0009
rradius 56.4558
rwrist -61.7047
rhand -5.50666 12.773
rfingers 7.12502
rthumb 20.3065 -16.1855
lclavicle 1.73315e-015 -9.93923e-017
lhumerus 37.1802 -44.1218 24.5642
lradius 53.2299
lwrist 61.68
lhand 4.94931 18.242
lfingers 7.12502
lthumb 30.3216 45.7706
rfemur -1.4152 11.2825 17.3817
rtibia 12.1536
rfoot -8.75421 -14.5868
rtoes -2.22326
lfemur 3.66172 -10.8762 -16.2137
ltibia -1.03368e-014
lfoot -2.73303 9.15215
ltoes -5.51361
294
root 0.208065 16.2227 -0.346132 0.944755 1.63172 -0.456758
lowerback 10.6335 -0.0198148 0.180071
upperback -5.41524 -0.00160619 -0.0351191
thorax -11.8747 -0.0164788 -0.139431
lowerneck -12.9127 -6.19205 -10.5926
upperneck 29.6675 -8.07315 5.79876
head 12.6945 -4.08263 2.81893
rclavicle -3.83903e-015 -1.8487e-014
rhumerus 40.2979 41.3255 -15.8442
rradius 56.8015
rwrist -61.8959
rhand -5.85121 12.5724
rfingers 7.12502
rthumb 19.9754 -16.4209
lclavicle -3.83903e-015 -1.8487e-014
lhumerus 37.6453 -44.4062 24.3331
lradius 53.5272
lwrist 61.8788
lhand 4.80863 18.133
lfingers 7.12502
lthumb 30.1874 45.6862
rfemur -1.42897 11.2715 17.3797
rtibia 12.1211
rfoot -8.69202 -14.5464
rtoes -2.48634
lfemur 3.6497 -10.8381 -16.2041
ltibia -1.03368e-014
lfoot -2.69471 9.19602
ltoes -5.81114
295
root 0.208906 16.2227 -0.354384 0.971999 1.5973 -0.376396
lowerback 10.7314 -0.0525457 0.0903497
upperback -5.41243 -0.062685 -0.0607034
thorax -11.9311 -0.0397464 -0.104005
lowerneck -12.9205 -6.1365 -10.4595
upperneck 29.4717 -7.99718 5.74341
head 12.5976 -4.03966 2.78488
rclavicle -3.14949e-015 -1.22253e-014
rhumerus 40.8253 41.5023 -15.7813
rradius 57.0583
rwrist -61.9769
rhand -6.03452 12.3803
rfingers 7.12502
rthumb 19.7992 -16.6313
lclavicle -3.14949e-015 -1.22253e-014
lhumerus 38.1551 -44.5957 23.9238
lradius 53.8219
lwrist 62.0962
lhand 4.99655 18.0909
lfingers 7.12502
lthumb 30.3667 45.6112
rfemur -1.46617 11.2401 17.2617
rtibia 12.0523
rfoot -8.65042 -14.4881
rtoes -2.43192
lfemur 3.59567 -10.8041 -16.2937
ltibia 3.18055e-015
lfoot -2.64976 9.32953
ltoes -6.43885
296
root 0.210544 16.225 -0.364282 1.00377 1.55887 -0.336816
lowerback 10.7785 -0.0539267 0.110437
upperback -5.35359 -0.0655328 -0.0986922
thorax -11.8929 -0.0445367 -0.156064
lowerneck -12.9641 -6.13344 -10.4285
upperneck 29.1965 -7.9895 5.7752
head 12.4933 -4.02595 2.78879
rclavicle 4.19933e-015 3.47873e-015
rhumerus 41.1886 41.5043 -15.7719
rradius 57.3106
rwrist -61.9962
rhand -6.02693 12.3757
rfingers 7.12502
rthumb 19.8065 -16.6351
lclavicle 4.19933e-015 3.47873e-015
lhumerus 38.5167 -44.5327 23.8613
lradius 54.2563
lwrist 62.062
lhand 5.00426 18.7799
lfingers 7.12502
lthumb 30.374 46.2988
rfemur -1.52772 11.2149 17.1835
rtibia 12.0144
rfoot -8.6256 -14.4289
rtoes -2.24622
lfemur 3.52435 -10.765 -16.3346
ltibia 2.38542e-015
lfoot -2.62174 9.405
ltoes -6.54389
297
root 0.211945 16.2277 -0.373146 1.05462 1.51519 -0.467702
lowerback 10.8055 -0.0354319 0.322674
upperback -5.28855 -0.00551495 -0.0863631
thorax -11.8352 -0.031948 -0.27478
lowerneck -13.1196 -6.17197 -10.502
upperneck 29.0071 -8.02424 5.86095
head 12.4604 -4.03384 2.82237
rclavicle 1.99406e-015 2.5842e-015
rhumerus 41.4961 41.459 -15.6702
rradius 57.6066
rwrist -62.0669
rhand -6.13611 12.3359
rfingers 7.12502
rthumb 19.7015 -16.6857
lclavicle 1.99406e-015 2.5842e-015
lhumerus 38.9598 -44.5023 23.698
lradius 54.8493
lwrist 62.139
lhand 4.7309 19.1089
lfingers 7.12502
lthumb 30.1133 46.6756
rfemur -1.65244 11.2244 17.3006
rtibia 12.0485
rfoot -8.60114 -14.4011
rtoes -2.24164
lfemur 3.43997 -10.7154 -16.1774
ltibia 1.11319e-014
lfoot -2.60721 9.40848
ltoes -6.43137
298
root 0.210518 16.2288 -0.383806 1.11935 1.47096 -0.50756
lowerback 10.8474 -0.0135649 0.403979
upperback -5.25815 0.0366101 -0.0899337
thorax -11.8258 -0.0183989 -0.333305
lowerneck -13.1637 -6.20241 -10.6398
upperneck 28.8141 -8.06429 6.01754
head 12.4104 -4.04494 2.8958
rclavicle 5.2181e-016 1.12313e-014
rhumerus 41.7774 41.4563 -15.5918
rradius 58.0525
rwrist -62.232
rhand -6.40258 12.214
rfingers 7.12502
rthumb 19.4453 -16.8337
lclavicle 5.2181e-016 1.12313e-014
lhumerus 39.5151 -44.5856 23.3317
lradius 55.3264
lwrist 62.3568
lhand 4.59233 18.9116
lfingers 7.12502
lthumb 29.9811 46.5023
rfemur -1.81358 11.3138 17.3332
rtibia 12.1111
rfoot -8.56429 -14.4503
rtoes -2.46601
lfemur 3.32524 -10.6658 -16.0969
ltibia -7.15625e-015
lfoot -2.64769 9.41628
ltoes -6.03919
299
root 0.20835 16.2311 -0.39525 1.19348 1.41625 -0.37947
lowerback 10.9113 0.00113293 0.245478
upperback -5.28417 0.0298377 -0.103947
thorax -11.8941 -0.0100693 -0.257894
lowerneck -13.0509 -6.1797 -10.783
upperneck 28.6176 -8.03993 6.1649
head 12.3197 -4.03273 2.98061
rclavicle 3.91357e-016 8.05078e-015
rhumerus 42.1338 41.6015 -15.2762
rradius 58.7232
rwrist -62.4806
rhand -6.6358 12.0943
rfingers 7.12502
rthumb 19.2211 -16.9759
lclavicle 3.91357e-016 8.05078e-015
lhumerus 39.8255 -44.6392 23.2218
lradius 55.5349
lwrist 62.5123
lhand 4.70451 18.794
lfingers 7.12502
lthumb 30.0881 46.3653
rfemur -1.98534 11.3913 17.177
rtibia 12.1872
rfoot -8.54848 -14.4938
rtoes -2.35846
lfemur 3.20254 -10.6094 -16.2072
ltibia -8.74653e-015
lfoot -2.65898 9.41866
ltoes -6.14465
